<svg id="Layer_1" data-name="Layer 1" xmlns="http://www.w3.org/2000/svg" viewBox="0 0 356.91 562.53"><defs><style>.cls-1{fill:#fff;}</style></defs><path class="cls-1" d="M144.12,426.33q-.37-13.59-.38-20.37,0-40,11.32-69,8.3-21.87,26.79-44.14,13.59-16.22,48.86-47.35t45.84-49.61a80,80,0,0,0,10.56-40.37q0-39.61-30.93-69.61t-75.84-30q-43.4,0-72.44,27.16T69.8,167.89L0,159.59Q9.42,82.25,56,41.12T179.21,0q81.1,0,129.41,44.14t48.29,106.77a135.19,135.19,0,0,1-17,66.78q-17,30.56-66.4,74.33-33.21,29.42-43.39,43.38a96.81,96.81,0,0,0-15.09,32.07q-4.91,18.12-5.66,58.86ZM140,562.53V485.18h77.34v77.35Z"/></svg>